<?xml version="1.0"?>
<svg xmlns="http://www.w3.org/2000/svg" xmlns:xlink="http://www.w3.org/1999/xlink" version="1.1" id="Capa_1" x="0px" y="0px" viewBox="0 0 480.197 480.197" style="enable-background:new 0 0 480.197 480.197;" xml:space="preserve" width="100px" height="100px" class=""><g><path style="fill:#F4D8C3;" d="M432.098,208.197c-13.255,0-24,10.745-24,24v46.232c-9.76-8.89-24.879-8.184-33.769,1.576  c-4.032,4.426-6.255,10.205-6.231,16.192v40l-38.544,22.024c-20.687,11.822-33.455,33.821-33.456,57.648v56.328h64v-32  l31.328-20.888c38.729-25.783,62.699-68.617,64.416-115.112h0.256v-72C456.098,218.942,445.353,208.197,432.098,208.197  L432.098,208.197z" data-original="#F4D8C3"/><path style="fill:#C63846;" d="M226.77,290.869L98.066,162.165c-29.364-29.371-34.971-74.957-13.6-110.568  c7.642-12.738,18.302-23.398,31.04-31.04c35.611-21.371,81.197-15.764,110.568,13.6l14.024,14.04l14.032-14.032  c29.371-29.364,74.957-34.971,110.568-13.6c12.738,7.642,23.398,18.302,31.04,31.04c21.371,35.611,15.764,81.197-13.6,110.568  L253.426,290.869C246.066,298.23,234.132,298.23,226.77,290.869C226.771,290.869,226.771,290.869,226.77,290.869z" data-original="#C63846"/><path style="fill:#751616;" d="M232.098,208.197c-3.442-0.003-6.496-2.206-7.584-5.472l-25.904-77.68l-15.312,30.728  c-1.362,2.725-4.153,4.441-7.2,4.424h-128c-4.418,0-8-3.582-8-8s3.582-8,8-8h123.056l21.784-43.576  c1.977-3.952,6.782-5.553,10.734-3.576c1.897,0.949,3.339,2.612,4.01,4.624l23.568,70.672l25.12-94.208  c0.987-3.536,4.225-5.97,7.896-5.936c3.689,0.075,6.848,2.662,7.648,6.264l12.224,55.024l13.56-18.088  c2.632-3.549,7.642-4.293,11.191-1.661c1.021,0.757,1.847,1.746,2.409,2.885l13.744,27.576h107.056c4.418,0,8,3.582,8,8  s-3.582,8-8,8h-112c-3.047,0.017-5.838-1.699-7.2-4.424l-10.168-20.376l-16.232,21.6c-2.647,3.537-7.661,4.259-11.198,1.612  c-1.533-1.147-2.604-2.806-3.018-4.676l-8.888-40l-23.568,88.328c-0.91,3.416-3.955,5.829-7.488,5.936H232.098z" data-original="#751616"/><g>
	<path style="fill:#DDB9A2;" d="M344.098,472.197h16v-32l31.328-20.888c38.729-25.783,62.699-68.617,64.416-115.112h0.256v-72   c0-13.255-10.745-24-24-24c5.262,10.521,8.001,22.124,8,33.888v49.6c0,8.327-0.822,16.634-2.456,24.8l-1.248,6.264   c-2.841,14.204-8.104,27.813-15.56,40.232c-8.409,14.023-19.462,26.279-32.544,36.088l-44.192,33.128L344.098,472.197z" data-original="#DDB9A2" class=""/>
	<path style="fill:#DDB9A2;" d="M392.098,272.197c-2.686,0.03-5.347,0.514-7.872,1.432c9.503,3.4,15.851,12.395,15.872,22.488v40.08   l16,0.08v-40.08C416.098,282.942,405.353,272.197,392.098,272.197z" data-original="#DDB9A2" class=""/>
</g><path style="fill:#FFF8E3;" d="M400.098,280.197c8.837,0,16,7.163,16,16v8l0,0h-32l0,0v-8  C384.098,287.36,391.262,280.197,400.098,280.197z" data-original="#FFF8E3" class=""/><path style="fill:#F4D8C3;" d="M48.098,208.197c13.255,0,24,10.745,24,24v46.232c9.76-8.89,24.879-8.184,33.769,1.576  c4.032,4.426,6.255,10.205,6.231,16.192v40l38.544,22.024c20.687,11.822,33.455,33.821,33.456,57.648v56.328h-64v-32L88.77,419.309  c-38.729-25.783-62.699-68.617-64.416-115.112h-0.256v-72C24.098,218.942,34.844,208.197,48.098,208.197z" data-original="#F4D8C3"/><g>
	<path style="fill:#DDB9A2;" d="M136.098,472.197h-16v-32L88.77,419.309c-38.729-25.783-62.699-68.617-64.416-115.112h-0.256v-72   c0-13.255,10.745-24,24-24c-5.262,10.521-8.001,22.124-8,33.888v49.6c0,8.327,0.822,16.634,2.456,24.8l1.248,6.264   c2.841,14.204,8.104,27.813,15.56,40.232c8.409,14.023,19.462,26.279,32.544,36.088l44.192,33.128V472.197z" data-original="#DDB9A2" class=""/>
	<path style="fill:#DDB9A2;" d="M88.098,272.197c2.686,0.03,5.347,0.514,7.872,1.432c-9.503,3.4-15.851,12.395-15.872,22.488v40.08   l-16,0.08v-40.08C64.098,282.942,74.844,272.197,88.098,272.197z" data-original="#DDB9A2" class=""/>
</g><path style="fill:#FFF8E3;" d="M96.098,304.197h-32l0,0v-8c0-8.837,7.163-16,16-16s16,7.163,16,16V304.197L96.098,304.197z" data-original="#FFF8E3" class=""/><path d="M48.098,160.581H85.61c2.135,2.653,4.405,5.195,6.8,7.616l128.704,128.552c10.497,10.453,27.471,10.453,37.968,0  l128.704-128.552c2.395-2.421,4.665-4.963,6.8-7.616h37.512c4.418,0,8-3.582,8-8s-3.582-8-8-8h-26.936  c25.346-48.102,6.898-107.644-41.204-132.989C325.795-8.517,278.986-1.44,248.474,29.053l-8.376,8.368l-8.376-8.368  C193.423-9.503,131.12-9.71,92.564,28.589c-30.782,30.578-37.903,77.708-17.53,116.015H48.098c-4.418,0-8,3.582-8,8s3.582,8,8,8  L48.098,160.581z M247.77,285.445c-4.242,4.225-11.102,4.225-15.344,0L107.41,160.581h68.688c3.038,0.024,5.827-1.674,7.2-4.384  l15.352-30.688l25.904,77.6c1.09,3.262,4.144,5.463,7.584,5.464h0.24c3.531-0.106,6.575-2.515,7.488-5.928l23.568-88.256l8.888,40  c0.955,4.314,5.226,7.037,9.54,6.082c1.87-0.414,3.529-1.485,4.676-3.018l16.232-21.6l10.168,20.344  c1.364,2.722,4.155,4.434,7.2,4.416h52.688L247.77,285.445z M91.298,56.197c23.473-39.07,74.174-51.713,113.244-28.24  c5.776,3.47,11.105,7.634,15.868,12.4l14.032,14.008c3.124,3.123,8.188,3.123,11.312,0l14.032-14.008  c32.144-32.246,84.342-32.329,116.588-0.185c27.968,27.88,32.238,71.677,10.18,104.433h-61.512l-13.744-27.544  c-1.956-3.962-6.753-5.588-10.715-3.633c-1.139,0.562-2.129,1.388-2.885,2.409l-13.6,18.064l-12.224-54.952  c-0.803-3.599-3.962-6.182-7.648-6.256c-3.67-0.038-6.908,2.393-7.896,5.928l-25.12,94.096l-23.568-70.592  c-1.398-4.191-5.929-6.456-10.12-5.058c-2.012,0.671-3.675,2.113-4.624,4.01l-21.784,43.528H93.642  C75.718,118.104,74.803,83.61,91.298,56.197L91.298,56.197z" data-original="#000000" class="active-path" style="fill:#0C0C6B" data-old_color="#373799"/><path d="M112.098,444.525v27.672c0,4.418,3.582,8,8,8s8-3.582,8-8v-31.952c-0.002-2.671-1.338-5.165-3.56-6.648L93.21,412.733  c-38.171-25.391-61.109-68.195-61.112-114.04v-66.2c0-8.837,7.163-16,16-16s16,7.163,16,16v43.008  c-5.126,5.766-7.971,13.205-8,20.92v32c0,4.418,3.582,8,8,8s8-3.582,8-8v-32c0-8.837,7.163-16,16-16s16,7.163,16,16v39.952  c-0.003,2.861,1.522,5.506,4,6.936l38.544,22c18.201,10.365,29.445,29.695,29.456,50.64v56.248c0,4.418,3.582,8,8,8s8-3.582,8-8  v-56.248c0.004-26.678-14.307-51.307-37.488-64.512l-34.512-19.704v-35.312c0.187-17.464-13.82-31.773-31.284-31.96  c-2.944-0.031-5.877,0.348-8.716,1.128v-33.096c0-17.673-14.327-32-32-32s-32,14.327-32,32v66.2  c0,51.19,25.611,98.985,68.232,127.336L112.098,444.525z" data-original="#000000" class="active-path" style="fill:#0C0C6B" data-old_color="#373799"/><path d="M432.098,200.533c-17.658,0-31.978,14.303-32,31.96v33.096c-16.841-4.627-34.245,5.275-38.872,22.116  c-0.78,2.839-1.16,5.772-1.128,8.716v35.312l-34.512,19.704c-23.181,13.205-37.492,37.834-37.488,64.512v56.248c0,4.418,3.582,8,8,8  s8-3.582,8-8v-56.248c0.01-20.937,11.239-40.263,29.424-50.64l38.544-22c2.478-1.43,4.003-4.075,4-6.936v-39.952  c0-8.837,7.163-16,16-16s16,7.163,16,16v32c0,4.418,3.582,8,8,8s8-3.582,8-8v-32c-0.029-7.715-2.874-15.154-8-20.92v-43.008  c0-8.837,7.163-16,16-16s16,7.163,16,16v66.2c-0.013,45.842-22.948,88.642-61.112,114.04l-31.328,20.864  c-2.222,1.483-3.558,3.977-3.56,6.648v31.952c0,4.418,3.582,8,8,8s8-3.582,8-8v-27.68l27.768-18.496  c42.623-28.35,68.244-76.138,68.264-127.328v-66.2C464.076,214.835,449.756,200.533,432.098,200.533L432.098,200.533z" data-original="#000000" class="active-path" style="fill:#0C0C6B" data-old_color="#373799"/></g> </svg>
